<?xml version="1.0" standalone="no"?>
<!DOCTYPE svg PUBLIC "-//W3C//DTD SVG 20010904//EN"
 "http://www.w3.org/TR/2001/REC-SVG-20010904/DTD/svg10.dtd">
<svg version="1.0" xmlns="http://www.w3.org/2000/svg"
 width="1410.441596pt" height="416.931740pt" viewBox="0 0 1410.441596 416.931740"
 preserveAspectRatio="xMidYMid meet">
<metadata>
Created by potrace 1.16, written by Peter Selinger 2001-2019
</metadata>
<g transform="translate(-24.558404,440.957151) scale(0.100000,-0.100000)"
fill="#ffffff" stroke="none">
<path d="M3131 4397 c-6 -8 -74 -144 -152 -303 -144 -296 -708 -1426 -715
-1433 -7 -7 -120 107 -261 262 -112 122 -129 137 -158 137 -40 0 -51 -12 -116
-135 -28 -55 -85 -156 -124 -225 -73 -126 -341 -596 -387 -680 -14 -25 -86
-151 -160 -280 -120 -209 -242 -427 -331 -590 -16 -30 -47 -84 -67 -120 -52
-91 -250 -451 -250 -455 0 -2 -22 -40 -50 -85 -27 -45 -50 -84 -50 -86 0 -3
-16 -30 -35 -60 -41 -64 -39 -89 7 -98 39 -8 5575 -8 5605 0 50 14 69 -32
-437 1054 -251 538 -349 753 -450 980 -21 47 -56 123 -77 170 -22 47 -55 119
-73 160 -18 41 -46 104 -63 140 -68 148 -193 424 -253 560 -35 80 -70 156 -77
170 -21 42 -55 37 -117 -18 -219 -193 -550 -456 -560 -445 -16 16 -453 1055
-540 1283 -18 47 -37 91 -43 98 -13 16 -52 15 -66 -1z m-11 -1128 c9 -24 19
-51 23 -59 3 -8 15 -42 26 -75 12 -33 26 -69 31 -80 5 -11 48 -119 95 -240 48
-121 126 -319 175 -440 49 -121 114 -285 145 -363 31 -79 60 -151 65 -160 5
-10 27 -62 49 -117 321 -807 451 -1137 451 -1147 0 -10 -184 -12 -897 -10
l-898 4 -250 113 c-137 62 -302 137 -365 167 -63 30 -180 83 -259 119 -79 35
-145 69 -148 75 -4 11 37 96 127 264 100 184 373 711 437 843 26 53 53 96 59
95 6 -2 94 -81 195 -177 204 -193 219 -203 249 -176 11 10 20 22 20 26 0 8
258 571 357 779 25 52 56 118 68 145 12 28 46 98 74 157 28 60 51 110 51 112
0 3 13 33 28 68 16 35 35 78 42 96 16 42 30 37 50 -19z"/>
<path d="M6610 2896 l0 -974 23 -4 c12 -2 247 -1 522 3 468 6 505 8 584 28
288 74 447 291 413 561 -24 192 -109 307 -274 370 -29 11 -60 20 -70 20 -32 0
-24 25 14 42 116 52 195 131 239 238 27 67 29 224 3 323 -37 146 -150 257
-317 311 -150 49 -230 55 -709 56 l-428 0 0 -974z m945 663 c120 -45 169 -118
170 -251 0 -80 -2 -89 -30 -130 -34 -48 -108 -102 -163 -118 -20 -7 -153 -14
-294 -17 l-258 -6 0 272 0 271 260 0 c239 0 264 -2 315 -21z m46 -807 c127
-51 184 -136 184 -272 0 -98 -13 -130 -78 -198 -77 -79 -109 -86 -439 -90
l-288 -4 0 297 0 296 283 -3 c266 -3 285 -4 338 -26z"/>
<path d="M13888 3338 c-2 -293 -2 -732 0 -975 l2 -443 175 0 175 0 0 975 0
975 -175 0 -174 0 -3 -532z"/>
<path d="M8850 3336 c-309 -69 -488 -266 -536 -589 -62 -421 122 -738 482
-831 299 -77 607 -3 780 187 252 278 226 822 -52 1077 -68 62 -214 135 -310
155 -83 18 -286 18 -364 1z m311 -263 c158 -71 233 -237 224 -498 -9 -256
-132 -415 -334 -432 -176 -15 -311 82 -366 261 -31 101 -35 298 -9 399 52 201
175 302 359 294 53 -2 96 -10 126 -24z"/>
<path d="M10670 3339 c-161 -19 -273 -97 -350 -242 -14 -26 -28 -47 -32 -47
-5 0 -8 61 -8 135 l0 134 -154 3 c-84 2 -161 2 -170 0 -15 -3 -16 -63 -16
-703 l0 -699 175 0 175 0 0 313 c0 443 12 532 87 645 63 95 156 140 306 149
l87 6 0 152 c0 130 -2 154 -16 159 -9 3 -16 5 -17 5 -1 -1 -31 -5 -67 -10z"/>
<path d="M11330 3330 c-250 -68 -393 -220 -477 -505 -29 -99 -23 -345 10 -452
65 -206 157 -322 324 -405 223 -112 553 -105 753 17 112 68 243 245 227 305
-3 11 -1 18 4 14 5 -3 9 0 9 5 0 7 -55 11 -164 11 l-164 0 -11 -28 c-17 -40
-77 -99 -125 -124 -52 -26 -223 -37 -282 -18 -61 19 -136 75 -173 129 -35 52
-71 162 -71 218 l0 33 510 0 510 0 -4 118 c-16 379 -188 619 -493 686 -99 22
-297 20 -383 -4z m344 -253 c108 -50 185 -170 186 -290 l0 -27 -332 2 -333 3
3 35 c6 62 52 163 95 207 95 99 254 128 381 70z"/>
<path d="M12780 3330 c-210 -57 -344 -186 -374 -363 -3 -15 -7 -36 -11 -46 -6
-18 2 -19 157 -20 l163 -2 13 43 c34 110 120 162 267 162 175 1 264 -77 273
-240 4 -63 2 -73 -14 -78 -11 -3 -104 -10 -209 -16 -435 -25 -616 -114 -690
-339 -28 -86 -18 -249 20 -320 100 -183 357 -270 610 -205 94 24 170 70 239
145 l63 68 13 -99 12 -100 163 0 164 0 -9 30 c-5 17 -9 234 -10 483 0 284 -4
474 -11 512 -35 188 -156 316 -356 377 -104 31 -369 36 -473 8z m488 -863 c-5
-130 -21 -171 -94 -243 -66 -63 -137 -88 -254 -89 -156 0 -221 50 -228 176
-11 180 116 241 552 266 l28 2 -4 -112z"/>
<path d="M6680 965 l0 -605 120 0 120 0 0 605 0 605 -120 0 -120 0 0 -605z"/>
<path d="M7516 1225 c-52 -18 -117 -65 -135 -97 -17 -29 -48 -40 -37 -13 3 9
3 36 -1 60 l-6 45 -103 0 -104 0 0 -430 0 -430 110 0 109 0 -2 263 c-2 288 6
337 63 394 64 65 170 78 233 30 71 -54 72 -57 75 -392 l3 -300 110 3 110 3 -3
327 -3 327 -29 64 c-38 80 -102 135 -179 150 -66 14 -163 12 -211 -4z"/>
<path d="M8323 1225 c-157 -43 -235 -144 -219 -283 14 -125 85 -175 313 -221
190 -39 223 -57 223 -123 0 -135 -284 -143 -340 -9 l-12 31 -101 0 -100 0 7
-47 c19 -138 142 -221 343 -231 207 -10 343 46 400 165 30 63 23 184 -13 236
-43 60 -129 102 -261 127 -205 39 -243 58 -243 119 0 45 9 60 51 81 92 47 223
13 249 -65 l12 -35 104 0 c121 0 116 -8 64 107 -33 71 -94 118 -190 147 -66
20 -215 20 -287 1z"/>
<path d="M10411 1224 c-67 -18 -110 -49 -153 -112 l-33 -47 -5 75 -5 75 -107
3 -108 3 0 -431 0 -430 116 0 117 0 -7 223 c-7 205 -6 227 12 285 39 121 105
172 225 172 l67 0 0 100 0 100 -32 -1 c-18 0 -57 -7 -87 -15z"/>
<path d="M10865 1222 c-127 -38 -192 -107 -219 -234 l-6 -28 110 0 c98 0 110
2 110 18 0 62 75 112 167 112 102 -1 161 -47 170 -134 8 -64 -5 -77 -76 -71
-79 5 -256 -12 -316 -32 -129 -42 -195 -125 -195 -246 0 -118 40 -186 138
-234 52 -26 67 -28 167 -28 102 0 114 2 169 30 32 16 71 44 85 62 33 41 41 41
41 1 0 -75 2 -76 109 -80 l97 -3 -3 320 c-5 362 -10 390 -74 460 -67 72 -141
98 -289 102 -97 2 -138 -1 -185 -15z m335 -514 c-1 -118 -55 -186 -171 -210
-140 -29 -240 63 -185 171 31 60 135 92 324 100 l32 1 0 -62z"/>
<path d="M12015 1231 c-53 -13 -92 -39 -139 -93 l-46 -53 0 68 0 67 -110 0
-110 0 -1 -132 c-1 -73 -2 -267 -3 -430 l-1 -298 113 0 112 0 0 263 c0 286 6
323 54 384 90 112 269 81 305 -52 7 -24 11 -148 11 -317 l0 -278 114 0 114 0
-4 277 c-2 153 -6 303 -9 333 -12 116 -90 222 -187 254 -51 16 -159 20 -213 7z"/>
<path d="M12852 1225 c-163 -46 -277 -199 -288 -388 -14 -224 61 -379 222
-458 111 -55 304 -53 418 3 69 35 132 103 160 174 39 96 42 93 -76 96 l-102 3
-26 -50 c-81 -161 -303 -128 -356 53 -23 77 -23 203 1 267 50 136 162 190 275
133 45 -23 99 -88 100 -120 0 -15 10 -18 68 -18 37 0 83 3 103 6 l37 6 -13 48
c-28 106 -85 172 -194 223 -79 38 -237 48 -329 22z"/>
<path d="M13790 1226 c-96 -28 -177 -84 -222 -156 -102 -161 -102 -408 0 -560
73 -107 174 -158 333 -167 201 -12 349 63 413 210 l26 57 -64 0 c-35 0 -83 3
-107 6 -42 5 -45 4 -60 -28 -25 -53 -95 -90 -169 -90 -128 0 -220 87 -220 210
l0 32 315 0 315 0 0 66 c0 183 -84 330 -228 397 -60 28 -77 31 -177 34 -69 1
-127 -2 -155 -11z m247 -161 c39 -23 70 -70 83 -129 6 -27 9 -50 8 -51 -3 -3
-350 -9 -385 -6 -72 4 24 172 115 202 41 13 146 4 179 -16z"/>
<path d="M8992 898 c3 -367 9 -399 89 -479 60 -60 98 -72 219 -73 129 -1 180
19 252 97 l48 51 0 -67 0 -67 105 0 104 0 1 430 0 430 -109 0 -110 0 -3 -277
c-3 -269 -4 -280 -27 -326 -66 -134 -264 -147 -327 -20 -17 35 -19 63 -19 330
l0 293 -113 0 -112 0 2 -322z"/>
</g>
</svg>
