<svg width="150" height="25" fill="none" xmlns="http://www.w3.org/2000/svg"><g clip-path="url(#a)"><path d="M118.31 25V6.805h13.682v3.157h-10.013v4.309h8.181v2.968h-8.181v4.604h9.984V25H118.31Zm30.857 0v-3.181h-9.693V6.805h-3.669V25h13.362Zm-34.403 0-7.486-10.442 7.33-7.753h-4.454l-7.128 7.454h-1.225V6.805h-3.669V25h3.669v-7.757h3.316L110.68 25h4.084Zm-61.642 0V6.805h-4.27l-5.817 9.352h-.272l-5.768-9.352H32.7V25h3.583V11.959l4.89 7.63h3.504l4.89-7.63V25h3.553Zm22.556 0-8.23-18.195h-3.545L55.698 25h3.944l1.54-3.628h8.986L71.706 25h3.973ZM65.526 11.155h.32l2.987 7.06h-6.31l2.998-7.06h.005ZM94.146 25l-4.56-6.896c.28-.028.555-.078.822-.151 2.597-.73 4.076-2.686 4.076-5.424 0-3.477-2.535-5.724-6.455-5.724h-9.623V25h3.67v-6.724h3.615L90.005 25h4.146-.004ZM82.072 9.962h5.502c2.178 0 3.238.824 3.238 2.513 0 1.69-1.163 2.62-3.185 2.62h-5.555V9.962Z" fill="#424242"/><path d="M7.638 25H0V9.884l7.638-3.009V25Zm8.706-21.564L8.706 6.449V25h7.638V3.436ZM25.054 0l-7.637 3.013V25h7.638V0Z" fill="#FF4E00"/></g><defs><clipPath id="a"><path fill="#fff" d="M0 0h149.167v25H0z"/></clipPath></defs></svg>
